<svg width="34" height="28" viewBox="0 0 34 28" fill="none" xmlns="http://www.w3.org/2000/svg">
<path d="M3.54005 9.084C2.92405 9.084 2.37205 8.984 1.88405 8.784C1.39605 8.584 1.00405 8.288 0.708047 7.896C0.420047 7.504 0.268047 7.032 0.252047 6.48H2.43605C2.46805 6.792 2.57605 7.032 2.76005 7.2C2.94405 7.36 3.18405 7.44 3.48005 7.44C3.78405 7.44 4.02405 7.372 4.20005 7.236C4.37605 7.092 4.46405 6.896 4.46405 6.648C4.46405 6.44 4.39205 6.268 4.24805 6.132C4.11205 5.996 3.94005 5.884 3.73205 5.796C3.53205 5.708 3.24405 5.608 2.86805 5.496C2.32405 5.328 1.88005 5.16 1.53605 4.992C1.19205 4.824 0.896047 4.576 0.648047 4.248C0.400047 3.92 0.276047 3.492 0.276047 2.964C0.276047 2.18 0.560047 1.568 1.12805 1.128C1.69605 0.68 2.43605 0.456 3.34805 0.456C4.27605 0.456 5.02405 0.68 5.59205 1.128C6.16005 1.568 6.46405 2.184 6.50405 2.976H4.28405C4.26805 2.704 4.16805 2.492 3.98405 2.34C3.80005 2.18 3.56405 2.1 3.27605 2.1C3.02805 2.1 2.82805 2.168 2.67605 2.304C2.52405 2.432 2.44805 2.62 2.44805 2.868C2.44805 3.14 2.57605 3.352 2.83205 3.504C3.08805 3.656 3.48805 3.82 4.03205 3.996C4.57605 4.18 5.01605 4.356 5.35205 4.524C5.69605 4.692 5.99205 4.936 6.24005 5.256C6.48805 5.576 6.61205 5.988 6.61205 6.492C6.61205 6.972 6.48805 7.408 6.24005 7.8C6.00005 8.192 5.64805 8.504 5.18405 8.736C4.72005 8.968 4.17205 9.084 3.54005 9.084ZM11.9909 2.232C12.7589 2.232 13.3749 2.488 13.8389 3C14.3029 3.504 14.5349 4.2 14.5349 5.088V9H12.4949V5.364C12.4949 4.916 12.3789 4.568 12.1469 4.32C11.9149 4.072 11.6029 3.948 11.2109 3.948C10.8189 3.948 10.5069 4.072 10.2749 4.32C10.0429 4.568 9.92686 4.916 9.92686 5.364V9H7.87486V0.12H9.92686V3.204C10.1349 2.908 10.4189 2.672 10.7789 2.496C11.1389 2.32 11.5429 2.232 11.9909 2.232ZM19.0088 9.096C18.3528 9.096 17.7608 8.956 17.2328 8.676C16.7128 8.396 16.3008 7.996 15.9968 7.476C15.7008 6.956 15.5528 6.348 15.5528 5.652C15.5528 4.964 15.7048 4.36 16.0088 3.84C16.3128 3.312 16.7288 2.908 17.2568 2.628C17.7848 2.348 18.3768 2.208 19.0328 2.208C19.6888 2.208 20.2808 2.348 20.8088 2.628C21.3368 2.908 21.7528 3.312 22.0568 3.84C22.3608 4.36 22.5128 4.964 22.5128 5.652C22.5128 6.34 22.3568 6.948 22.0448 7.476C21.7408 7.996 21.3208 8.396 20.7848 8.676C20.2568 8.956 19.6648 9.096 19.0088 9.096ZM19.0088 7.32C19.4008 7.32 19.7328 7.176 20.0048 6.888C20.2848 6.6 20.4248 6.188 20.4248 5.652C20.4248 5.116 20.2888 4.704 20.0168 4.416C19.7528 4.128 19.4248 3.984 19.0328 3.984C18.6328 3.984 18.3008 4.128 18.0368 4.416C17.7728 4.696 17.6408 5.108 17.6408 5.652C17.6408 6.188 17.7688 6.6 18.0248 6.888C18.2888 7.176 18.6168 7.32 19.0088 7.32ZM33.2134 2.304L31.4014 9H29.1334L28.0774 4.656L26.9854 9H24.7294L22.9054 2.304H24.9574L25.9054 7.092L27.0334 2.304H29.2054L30.3454 7.068L31.2814 2.304H33.2134ZM11.1922 18.576V27H9.1402V21.948L7.2562 27H5.6002L3.7042 21.936V27H1.6522V18.576H4.0762L6.4402 24.408L8.7802 18.576H11.1922ZM15.7158 27.096C15.0598 27.096 14.4678 26.956 13.9398 26.676C13.4198 26.396 13.0078 25.996 12.7038 25.476C12.4078 24.956 12.2598 24.348 12.2598 23.652C12.2598 22.964 12.4118 22.36 12.7158 21.84C13.0198 21.312 13.4358 20.908 13.9638 20.628C14.4918 20.348 15.0838 20.208 15.7398 20.208C16.3958 20.208 16.9878 20.348 17.5158 20.628C18.0438 20.908 18.4598 21.312 18.7638 21.84C19.0678 22.36 19.2198 22.964 19.2198 23.652C19.2198 24.34 19.0638 24.948 18.7518 25.476C18.4478 25.996 18.0278 26.396 17.4918 26.676C16.9638 26.956 16.3718 27.096 15.7158 27.096ZM15.7158 25.32C16.1078 25.32 16.4398 25.176 16.7118 24.888C16.9918 24.6 17.1318 24.188 17.1318 23.652C17.1318 23.116 16.9958 22.704 16.7238 22.416C16.4598 22.128 16.1318 21.984 15.7398 21.984C15.3398 21.984 15.0078 22.128 14.7438 22.416C14.4798 22.696 14.3478 23.108 14.3478 23.652C14.3478 24.188 14.4758 24.6 14.7318 24.888C14.9958 25.176 15.3238 25.32 15.7158 25.32ZM22.3605 21.42C22.6005 21.052 22.9005 20.764 23.2605 20.556C23.6205 20.34 24.0205 20.232 24.4605 20.232V22.404H23.8965C23.3845 22.404 23.0005 22.516 22.7445 22.74C22.4885 22.956 22.3605 23.34 22.3605 23.892V27H20.3085V20.304H22.3605V21.42ZM31.7533 23.544C31.7533 23.736 31.7413 23.936 31.7173 24.144H27.0733C27.1053 24.56 27.2373 24.88 27.4693 25.104C27.7093 25.32 28.0013 25.428 28.3453 25.428C28.8573 25.428 29.2133 25.212 29.4133 24.78H31.5973C31.4853 25.22 31.2813 25.616 30.9853 25.968C30.6973 26.32 30.3333 26.596 29.8933 26.796C29.4533 26.996 28.9613 27.096 28.4173 27.096C27.7613 27.096 27.1773 26.956 26.6653 26.676C26.1533 26.396 25.7533 25.996 25.4653 25.476C25.1773 24.956 25.0333 24.348 25.0333 23.652C25.0333 22.956 25.1733 22.348 25.4533 21.828C25.7413 21.308 26.1413 20.908 26.6533 20.628C27.1653 20.348 27.7533 20.208 28.4173 20.208C29.0653 20.208 29.6413 20.344 30.1453 20.616C30.6493 20.888 31.0413 21.276 31.3213 21.78C31.6093 22.284 31.7533 22.872 31.7533 23.544ZM29.6533 23.004C29.6533 22.652 29.5333 22.372 29.2933 22.164C29.0533 21.956 28.7533 21.852 28.3933 21.852C28.0493 21.852 27.7573 21.952 27.5173 22.152C27.2853 22.352 27.1413 22.636 27.0853 23.004H29.6533Z" fill="white"/>
</svg>
